<svg version="1.1" id="Layer_1" xmlns="http://www.w3.org/2000/svg" xmlns:xlink="http://www.w3.org/1999/xlink" x="0px" y="0px"
	 width="100%" viewBox="0 0 1024 1024" enable-background="new 0 0 1024 1024" xml:space="preserve">
<path fill="#0F1010" opacity="1.000000" stroke="none" 
	d="
M540.000000,1025.000000 
	C360.000000,1025.000000 180.500000,1025.000000 1.000000,1025.000000 
	C1.000000,683.666687 1.000000,342.333344 1.000000,1.000000 
	C342.333344,1.000000 683.666687,1.000000 1025.000000,1.000000 
	C1025.000000,342.333344 1025.000000,683.666687 1025.000000,1025.000000 
	C863.500000,1025.000000 702.000000,1025.000000 540.000000,1025.000000 
M357.434113,791.069336 
	C357.154602,791.355469 356.875092,791.641602 355.979767,792.141968 
	C354.851593,793.790039 353.723450,795.438171 352.098236,796.874512 
	C348.707520,801.838440 349.139069,809.882080 353.016357,813.010193 
	C353.016357,813.010193 352.988220,813.056030 353.062897,813.744873 
	C353.789917,814.424377 354.516968,815.103882 355.067017,815.899109 
	C355.067017,815.899109 355.216675,815.749695 355.292938,816.466980 
	C356.276520,816.901550 357.260101,817.336121 358.722321,817.848999 
	C358.722321,817.848999 359.104950,818.146973 359.312073,818.826538 
	C362.792755,819.543518 366.272705,820.882568 369.754272,820.886780 
	C464.835785,821.002075 559.917480,820.991150 654.999146,820.938354 
	C658.124023,820.936646 661.306030,820.523499 664.347168,819.813232 
	C665.709534,819.495117 666.789612,817.967773 667.998901,817.004456 
	C667.998901,817.004456 667.983276,816.997803 668.332458,816.739624 
	C668.568237,816.571594 668.789246,816.386047 669.272522,815.670532 
	C669.588806,815.454468 669.905151,815.238464 670.481323,814.718506 
	C670.653503,814.514771 670.832642,814.317322 671.251770,813.370544 
	C674.996277,806.432129 673.686768,796.986755 667.890137,791.415649 
	C667.259949,791.235962 666.629700,791.056274 666.054626,790.967957 
	C666.054626,790.967957 666.144287,790.910034 665.865601,790.221802 
	C662.792297,789.722107 659.735168,788.958801 656.642822,788.768311 
	C643.105896,787.934509 629.407227,790.651123 616.185303,786.988892 
	C616.185303,786.988892 616.274414,786.804260 616.019104,786.329773 
	C615.683228,786.214294 615.347290,786.098816 614.652954,785.426147 
	C612.777405,783.606201 610.901855,781.786255 609.267761,779.460938 
	C606.475037,769.809998 603.738770,760.142029 600.841675,750.522461 
	C600.265869,748.610291 599.074097,746.883728 597.932739,744.420715 
	C597.887634,743.964050 597.842590,743.507446 598.244507,742.595093 
	C597.564331,740.750061 596.884155,738.905090 595.968140,736.403503 
	C595.930603,735.942200 595.893066,735.480896 596.301331,734.512573 
	C595.251160,731.014038 594.201050,727.515503 592.981201,723.558899 
	C592.981201,723.558899 592.974243,723.070374 593.115479,722.503723 
	C593.147583,722.311829 593.179688,722.119934 594.122070,721.956482 
	C666.725708,721.966492 739.329651,722.065552 811.932434,721.826599 
	C818.104858,721.806335 824.284546,719.596680 830.422668,718.232361 
	C831.362549,718.023438 832.094788,716.880249 833.361572,715.888855 
	C833.534668,715.876282 833.707703,715.863708 834.645264,715.906494 
	C836.427490,714.946777 838.209778,713.987061 840.003113,712.973267 
	C840.003113,712.973267 840.053711,712.994995 840.335205,712.771545 
	C840.531006,712.632996 840.725830,712.493042 841.408936,712.022156 
	C841.602234,711.986084 841.795593,711.949951 842.314880,711.717529 
	C842.536133,711.588623 842.738220,711.434509 843.310669,710.974731 
	C843.310669,710.974731 843.787659,710.921143 844.505859,710.919556 
	C845.310547,710.245667 846.115173,709.571777 847.177429,708.369263 
	C848.001587,707.868164 848.825745,707.367126 850.096741,706.644470 
	C850.393311,706.479614 850.623657,706.248657 851.111206,705.347778 
	C863.502258,695.595093 870.651917,682.571167 875.176636,667.805359 
	C875.781372,664.328064 876.912231,660.851196 876.914856,657.373474 
	C877.007385,534.524292 876.998108,411.675018 876.958313,288.825775 
	C876.957703,286.893402 876.398743,284.961212 875.940125,282.273468 
	C875.991028,281.506958 876.041931,280.740479 876.549561,279.291138 
	C876.649658,273.369446 876.888489,267.444458 876.748657,261.528381 
	C876.715332,260.119385 875.416321,258.740295 874.252319,256.862030 
	C873.853699,255.884338 873.455078,254.906647 873.022583,253.987762 
	C873.022583,253.987762 873.088562,254.003693 873.141174,253.366241 
	C872.882446,252.806259 872.623657,252.246277 872.345886,251.846420 
	C872.345886,251.846420 872.506958,251.838318 872.393311,251.153778 
	C871.959290,250.402740 871.525269,249.651703 871.033569,248.944977 
	C871.033569,248.944977 871.079468,249.001389 871.127319,248.261932 
	C870.765686,247.645920 870.404053,247.029907 870.040710,245.754227 
	C861.896240,229.698700 848.519470,219.947266 832.041443,213.984970 
	C832.041443,213.984970 832.067444,213.811417 832.067444,213.811417 
	C832.067444,213.811417 831.893433,214.094284 831.226257,214.133087 
	C830.798645,214.015442 830.370972,213.897797 829.676575,213.116135 
	C826.339539,212.412903 823.002747,211.095764 819.665344,211.094193 
	C615.263062,210.997910 410.860779,211.008896 206.458450,211.021896 
	C205.157043,211.021988 203.855652,211.188919 202.554245,211.277924 
	C202.673050,211.534927 202.762283,211.812790 202.922882,212.040268 
	C203.005341,212.157089 203.215210,212.183960 203.175156,212.599243 
	C203.175156,212.599243 202.933075,212.914413 202.114700,212.899353 
	C199.387604,213.578308 196.660522,214.257278 194.003098,214.925751 
	C194.003098,214.925751 193.982773,214.858292 193.211670,214.824493 
	C191.803391,215.293396 190.395096,215.762283 188.292084,216.332474 
	C182.149902,220.161255 175.633530,223.508377 169.948227,227.925262 
	C160.000793,235.653336 155.448914,246.989258 150.863556,258.220062 
	C150.247665,261.849640 149.095993,265.478790 149.093384,269.108826 
	C149.000732,397.683167 149.015518,526.257568 149.019089,654.831970 
	C149.019135,656.329773 149.065491,657.827820 149.127884,659.324158 
	C149.128983,659.350220 149.613739,659.399170 149.855042,659.350037 
	C149.946381,659.331482 149.987427,659.065430 150.430237,659.025208 
	C150.430237,659.025208 150.816528,659.111694 150.927780,659.847229 
	C151.011734,660.589294 151.095688,661.331421 151.067322,662.872375 
	C156.051514,690.279541 172.016830,708.222839 198.468781,718.124146 
	C204.372787,719.413818 210.265564,721.755920 216.182663,721.819031 
	C249.834106,722.178284 283.491364,721.977295 317.146637,721.997864 
	C355.799133,722.021484 394.451660,722.077515 433.110016,722.766174 
	C433.015961,723.185974 432.921936,723.605835 432.173035,724.275696 
	C431.039368,729.818054 429.905701,735.360474 428.774689,741.683228 
	C426.927856,749.171021 424.629669,756.583130 423.356995,764.167297 
	C421.996460,772.275146 418.831543,779.174683 412.370026,785.077393 
	C411.515961,785.689148 410.661926,786.300903 409.957092,786.979858 
	C409.957092,786.979858 410.021820,786.829590 409.220612,786.958862 
	C405.663910,787.616272 402.118011,788.760559 398.548462,788.839844 
	C387.739502,789.080078 376.920868,788.851868 366.107239,788.944763 
	C364.034882,788.962585 361.967926,789.611389 359.969727,789.977051 
	C359.969727,789.977051 359.973328,789.905457 359.372528,789.987610 
	C358.888306,790.323486 358.404114,790.659424 358.004700,791.018311 
	C358.004700,791.018311 358.029053,790.933899 357.434113,791.069336 
z"/>
<path fill="#EF9D13" opacity="1.000000" stroke="none" 
	d="
M668.286255,791.981018 
	C673.686768,796.986755 674.996277,806.432129 670.948120,813.843994 
	C670.402832,814.492126 670.261841,814.727112 670.221497,815.022461 
	C669.905151,815.238464 669.588806,815.454468 668.914917,815.986816 
	C668.294800,816.475830 668.103455,816.707397 667.983276,816.997803 
	C667.983276,816.997803 667.998901,817.004456 667.674316,817.057678 
	C665.939209,817.645264 664.528564,818.179626 663.054138,818.549683 
	C662.990295,818.385315 662.952332,818.035217 662.628967,817.780029 
	C660.668945,817.349121 659.032349,817.019958 657.395630,817.019531 
	C560.855896,816.994751 464.316132,816.991455 367.776428,817.037781 
	C365.854553,817.038696 363.932953,817.650818 361.998657,818.176025 
	C361.986053,818.374329 361.877808,818.756592 361.586975,818.785400 
	C360.565735,818.591797 359.835327,818.369385 359.104950,818.146973 
	C359.104950,818.146973 358.722321,817.848999 358.303925,817.565918 
	C356.995911,816.771790 356.106293,816.260742 355.216675,815.749695 
	C355.216675,815.749695 355.067017,815.899109 355.026215,815.574097 
	C354.319672,814.518005 353.653961,813.787048 352.988220,813.056030 
	C352.988220,813.056030 353.016357,813.010193 352.899445,812.595154 
	C352.720093,807.148804 352.657684,802.117554 352.595276,797.086243 
	C353.723450,795.438171 354.851593,793.790039 356.559906,791.915405 
	C357.436371,791.437134 357.732727,791.185547 358.029053,790.933899 
	C358.029053,790.933899 358.004700,791.018311 358.268311,790.959656 
	C359.012360,790.569153 359.492859,790.237305 359.973328,789.905457 
	C359.973328,789.905457 359.969727,789.977051 360.410248,789.953369 
	C374.400452,789.949280 387.954163,790.147522 401.496613,789.844604 
	C404.359406,789.780579 407.181183,787.882629 410.021820,786.829590 
	C410.021820,786.829590 409.957092,786.979858 410.223328,786.938232 
	C411.319580,786.225586 412.149628,785.554504 412.979675,784.883423 
	C418.831543,779.174683 421.996460,772.275146 423.356995,764.167297 
	C424.629669,756.583130 426.927856,749.171021 428.884216,740.923645 
	C430.271759,734.784607 431.549805,729.405090 432.827850,724.025635 
	C432.921936,723.605835 433.015961,723.185974 433.130615,722.459656 
	C433.151184,722.153137 433.193634,722.113525 433.411499,721.950378 
	C433.450623,721.159363 433.271881,720.531555 432.764954,719.638123 
	C430.784668,719.252686 429.132629,719.028259 427.480499,719.027893 
	C357.038513,719.010620 286.596527,719.007874 216.154556,719.044861 
	C214.366882,719.045776 212.579437,719.510498 210.405334,719.817993 
	C206.046036,719.066650 202.073288,718.256226 198.100540,717.445740 
	C172.016830,708.222839 156.051514,690.279541 151.335693,662.108704 
	C151.730545,659.528503 151.967453,657.712036 151.967712,655.895508 
	C151.986053,526.039490 151.988770,396.183441 151.953308,266.327423 
	C151.952820,264.554199 151.451462,262.781128 151.129868,260.690155 
	C151.169998,259.734131 151.264130,259.095917 151.358276,258.457703 
	C155.448914,246.989258 160.000793,235.653336 169.948227,227.925262 
	C175.633530,223.508377 182.149902,220.161255 188.895554,216.475967 
	C190.993607,216.032410 192.488190,215.445343 193.982773,214.858292 
	C193.982773,214.858292 194.003098,214.925751 194.404358,214.962082 
	C200.267365,214.660202 205.729019,214.027466 211.190826,214.026276 
	C414.383453,213.982208 617.576111,213.998627 820.768738,213.968277 
	C822.540466,213.968018 824.312134,213.445419 826.410034,213.121872 
	C827.805237,213.311401 828.874329,213.545761 829.943359,213.780151 
	C830.370972,213.897797 830.798645,214.015442 831.604248,214.065094 
	C831.982178,213.997116 831.902405,214.099915 831.902405,214.099915 
	C848.519470,219.947266 861.896240,229.698700 870.076904,246.444214 
	C870.435181,247.756607 870.757324,248.378998 871.079468,249.001389 
	C871.079468,249.001389 871.033569,248.944977 871.041626,249.281036 
	C871.535461,250.357513 872.021179,251.097916 872.506958,251.838318 
	C872.506958,251.838318 872.345886,251.846420 872.292725,252.092804 
	C872.522522,252.894043 872.805542,253.448868 873.088562,254.003693 
	C873.088562,254.003693 873.022583,253.987762 873.021484,254.395416 
	C873.350037,260.264008 873.965454,265.724854 873.967346,271.185913 
	C874.010925,400.705597 873.985352,530.225281 874.011597,659.744934 
	C874.011963,661.524231 874.513733,663.303406 874.833801,665.392822 
	C874.815308,666.333618 874.744446,666.964233 874.673584,667.594910 
	C870.651917,682.571167 863.502258,695.595093 850.709106,705.725708 
	C850.088013,706.357788 849.868958,706.611938 849.649902,706.866089 
	C848.825745,707.367126 848.001587,707.868164 846.743286,708.716003 
	C845.468689,709.682251 844.628174,710.301697 843.787659,710.921143 
	C843.787659,710.921143 843.310669,710.974731 842.906982,711.128296 
	C842.239319,711.417236 842.067810,711.627869 841.988892,711.913818 
	C841.795593,711.949951 841.602234,711.986084 840.973022,712.214294 
	C840.312683,712.550659 840.151550,712.746826 840.053711,712.994995 
	C840.053711,712.994995 840.003113,712.973267 839.656616,713.058716 
	C837.500305,714.046570 835.690491,714.948853 833.880676,715.851196 
	C833.707703,715.863708 833.534668,715.876282 832.773438,716.061523 
	C827.982056,717.163574 823.778748,718.092896 819.070984,719.079651 
	C818.067566,719.110840 817.568726,719.061646 817.069824,719.061523 
	C743.468994,719.040588 669.868103,719.017456 596.267273,719.049377 
	C594.865784,719.049988 593.464478,719.702393 592.044678,720.376221 
	C592.342224,721.491272 592.658264,722.280823 592.974243,723.070374 
	C592.974243,723.070374 592.981201,723.558899 593.030396,724.178223 
	C594.004944,728.204895 594.930298,731.612244 595.855591,735.019592 
	C595.893066,735.480896 595.930603,735.942200 596.079590,737.083130 
	C596.726501,739.525452 597.262024,741.288147 597.797546,743.050781 
	C597.842590,743.507446 597.887634,743.964050 598.042969,745.133911 
	C599.469177,751.475769 600.435547,757.216614 602.196228,762.702515 
	C604.083374,768.582153 606.717957,774.221863 609.026306,779.966309 
	C610.901855,781.786255 612.777405,783.606201 614.758423,785.894775 
	C615.334106,786.510315 615.804260,786.657288 616.274414,786.804260 
	C616.274414,786.804260 616.185303,786.988892 616.315491,787.232910 
	C620.096252,788.306641 623.721558,789.699768 627.401917,789.864380 
	C640.305786,790.441406 653.228638,790.595398 666.144287,790.910034 
	C666.144287,790.910034 666.054626,790.967957 666.240234,791.167358 
	C667.046021,791.571533 667.666138,791.776245 668.286255,791.981018 
M197.460724,256.182556 
	C197.171814,256.376923 196.983368,256.642609 196.965286,256.981995 
	C196.965286,256.981995 196.953217,256.913116 196.383224,257.101440 
	C195.887009,257.705231 195.390793,258.309021 194.960907,258.951660 
	C194.960907,258.951660 194.954895,258.875031 194.521774,259.020142 
	C194.228363,259.173676 194.068848,259.415405 193.463089,260.084625 
	C192.626343,261.075439 191.789597,262.066254 190.440994,263.475708 
	C189.610931,265.317352 188.780869,267.158997 187.316772,269.225372 
	C187.093964,269.459229 186.679886,269.689758 186.675705,269.927460 
	C186.432907,283.753021 186.152100,297.578583 186.033600,311.405487 
	C185.929962,323.497040 185.966400,335.590454 186.041031,347.682434 
	C186.063385,351.305542 186.595032,354.926880 186.589264,358.548523 
	C186.578537,365.294952 186.187439,372.042297 186.243652,378.786865 
	C186.313461,387.163544 186.874100,395.537903 186.869446,403.913025 
	C186.861115,418.914948 186.525635,433.916382 186.452087,448.918640 
	C186.412582,456.975494 186.751312,465.034271 186.707870,473.091034 
	C186.649109,483.988953 186.382324,494.885773 186.228149,505.783356 
	C186.221313,506.266937 186.533066,506.751068 186.548309,507.239532 
	C186.656754,510.718872 186.830734,514.200745 186.788223,517.679382 
	C186.683960,526.209778 186.321930,534.739319 186.346741,543.268433 
	C186.375534,553.171326 186.906204,563.074463 186.852478,572.975464 
	C186.793930,583.768555 186.132324,594.559204 186.123535,605.351196 
	C186.120651,608.901794 187.333374,612.453369 188.601318,615.957764 
	C188.803055,615.925598 189.004776,615.893372 189.131058,615.909485 
	C189.131058,615.909485 189.075043,615.839539 189.095413,616.550720 
	C189.504166,617.291992 189.912903,618.033203 190.788834,619.060242 
	C191.191742,619.642944 191.594666,620.225647 191.942062,620.986572 
	C191.942062,620.986572 192.119171,621.045349 192.202515,621.533142 
	C192.386703,621.825317 192.642166,622.027527 193.145859,622.786804 
	C195.814713,624.845825 198.483566,626.904846 201.664322,629.483276 
	C204.404831,629.989380 207.145096,630.936768 209.885864,630.938232 
	C339.600647,631.006042 469.315460,630.991882 599.960693,630.952637 
	C671.544006,630.954712 743.127258,630.965393 814.710571,630.915894 
	C816.781860,630.914490 818.852844,630.277161 821.479614,629.675903 
	C821.683167,629.695618 821.886780,629.715393 822.789124,629.937561 
	C827.669434,626.844971 833.500061,624.891479 836.312195,619.119568 
	C836.780945,618.730774 837.249695,618.341980 838.325378,617.525757 
	C838.861572,616.173645 839.856445,614.824280 839.864746,613.468872 
	C839.983521,594.088135 839.972534,574.706665 839.985535,555.325317 
	C839.993286,543.736267 839.988770,532.147278 839.989197,520.558228 
	C839.990601,478.948639 840.007629,437.338989 839.962524,395.729462 
	C839.958923,392.431244 839.297119,389.131195 839.330139,385.835938 
	C839.444702,374.437775 839.841858,363.042023 839.908325,351.644073 
	C839.944702,345.405060 839.324829,339.162140 839.362976,332.923218 
	C839.470459,315.330658 839.808289,297.739471 839.902649,280.146912 
	C839.910034,278.769043 838.733154,277.384766 838.038757,275.246826 
	C838.053284,274.487640 838.067871,273.728424 838.640137,272.589600 
	C840.276917,270.715057 840.790283,269.031738 837.502136,267.490906 
	C836.929993,267.087952 836.357849,266.684998 835.271851,265.818359 
	C833.513367,263.032928 831.754822,260.247498 829.699097,256.834656 
	C828.816040,256.199982 827.932983,255.565323 826.700317,254.373077 
	C825.738953,253.968216 824.777649,253.563354 823.450562,252.628647 
	C822.616272,252.453140 821.782043,252.277634 820.464294,251.508606 
	C811.039124,251.299988 801.614014,251.091370 791.231750,250.922119 
	C789.233276,250.940582 787.234863,250.975128 785.236389,250.975220 
	C604.195496,250.982986 423.154602,250.988129 241.384613,250.570068 
	C230.463745,250.441727 219.540497,250.154587 208.623962,250.317200 
	C206.403473,250.350281 204.208206,252.077164 201.417282,253.090622 
	C200.948654,253.403931 200.480011,253.717239 199.388779,254.204788 
	C198.947159,254.645477 198.505539,255.086182 198.141205,255.746658 
	C198.141205,255.746658 198.156845,255.979080 197.996719,255.934280 
	C197.996719,255.934280 197.947617,256.093140 197.460724,256.182556 
z"/>
<path fill="#FCB229" opacity="1.000000" stroke="none" 
	d="
M826.083801,213.166687 
	C824.312134,213.445419 822.540466,213.968018 820.768738,213.968277 
	C617.576111,213.998627 414.383453,213.982208 211.190826,214.026276 
	C205.729019,214.027466 200.267365,214.660202 194.369537,214.967316 
	C196.660522,214.257278 199.387604,213.578308 202.985703,212.970474 
	C207.853836,213.025650 211.850967,212.995773 215.848099,212.995758 
	C400.059113,212.995331 584.270142,213.003922 768.481140,212.989258 
	C786.462036,212.987823 804.442932,212.844803 822.791504,212.745667 
	C824.134033,212.871445 825.108948,213.019073 826.083801,213.166687 
z"/>
<path fill="#020103" opacity="1.000000" stroke="none" 
	d="
M826.410034,213.121857 
	C825.108948,213.019073 824.134033,212.871445 822.408875,212.540039 
	C819.165771,212.239044 816.673035,212.019470 814.180237,212.019211 
	C656.393188,212.002426 498.606140,211.985199 340.819092,212.014359 
	C295.001892,212.022827 249.184692,212.168640 203.367493,212.251480 
	C203.215210,212.183960 203.005341,212.157089 202.922882,212.040268 
	C202.762283,211.812790 202.673050,211.534927 202.554245,211.277924 
	C203.855652,211.188919 205.157043,211.021988 206.458450,211.021896 
	C410.860779,211.008896 615.263062,210.997910 819.665344,211.094193 
	C823.002747,211.095764 826.339539,212.412903 829.809937,213.448135 
	C828.874329,213.545761 827.805237,213.311401 826.410034,213.121857 
z"/>
<path fill="#CB9D4C" opacity="1.000000" stroke="none" 
	d="
M203.271332,212.425354 
	C249.184692,212.168640 295.001892,212.022827 340.819092,212.014359 
	C498.606140,211.985199 656.393188,212.002426 814.180237,212.019211 
	C816.673035,212.019470 819.165771,212.239044 822.041199,212.561890 
	C804.442932,212.844803 786.462036,212.987823 768.481140,212.989258 
	C584.270142,213.003922 400.059113,212.995331 215.848099,212.995758 
	C211.850967,212.995773 207.853836,213.025650 203.394897,212.977997 
	C202.933075,212.914413 203.175156,212.599243 203.271332,212.425354 
z"/>
<path fill="#020103" opacity="1.000000" stroke="none" 
	d="
M663.117981,818.713989 
	C664.528564,818.179626 665.939209,817.645264 667.673767,817.050049 
	C666.789612,817.967773 665.709534,819.495117 664.347168,819.813232 
	C661.306030,820.523499 658.124023,820.936646 654.999146,820.938354 
	C559.917480,820.991150 464.835785,821.002075 369.754272,820.886780 
	C366.272705,820.882568 362.792755,819.543518 359.208496,818.486755 
	C359.835327,818.369385 360.565735,818.591797 362.063782,818.877258 
	C461.937073,818.959961 561.042664,818.980408 660.148254,818.987366 
	C661.138184,818.987427 662.128052,818.809082 663.117981,818.713989 
z"/>
<path fill="#020103" opacity="1.000000" stroke="none" 
	d="
M151.110916,258.338867 
	C151.264130,259.095917 151.169998,259.734131 151.048828,261.007935 
	C150.973969,262.077087 150.926117,262.510651 150.687149,263.292358 
	C150.532776,266.804596 150.569534,269.968689 150.626648,273.561890 
	C150.632004,276.283539 150.616989,278.576111 150.420059,281.055115 
	C150.364502,281.872070 150.490891,282.502563 150.638535,283.421936 
	C150.645401,284.096527 150.631012,284.482239 150.418182,285.228088 
	C150.354019,289.435699 150.488342,293.283142 150.642761,297.559753 
	C150.646606,300.281342 150.630386,302.573792 150.412170,305.235046 
	C150.342407,313.446960 150.474655,321.290070 150.631805,329.561920 
	C150.647110,332.282959 150.637482,334.575226 150.433731,337.239594 
	C150.372116,348.451477 150.504639,359.291229 150.658096,370.473022 
	C150.662567,371.499817 150.646088,372.184570 150.430481,373.228973 
	C150.357758,377.436615 150.484146,381.284668 150.634644,385.561584 
	C150.645050,388.282715 150.631332,390.574982 150.417084,393.236206 
	C150.351822,399.781677 150.487106,405.958221 150.644608,412.423645 
	C150.653015,413.098328 150.639206,413.484100 150.428116,414.154694 
	C150.362289,416.002625 150.493744,417.565765 150.646942,419.471100 
	C150.652023,420.498505 150.635330,421.183685 150.432281,422.052307 
	C150.367371,422.867920 150.488831,423.500122 150.632568,424.591644 
	C150.645432,431.322998 150.636017,437.595093 150.428925,444.217102 
	C150.357849,447.754150 150.484451,450.941254 150.631836,454.470154 
	C150.637527,455.496307 150.622421,456.180695 150.441040,456.985626 
	C150.387222,457.451050 150.499680,457.795868 150.635849,458.533813 
	C150.647797,460.239227 150.636063,461.551544 150.422836,463.233093 
	C150.346252,475.113403 150.471161,486.624420 150.618378,498.555634 
	C150.622757,500.938873 150.604813,502.901947 150.385742,505.231506 
	C150.324341,510.443634 150.464066,515.289246 150.625229,520.543762 
	C150.629333,522.590393 150.612000,524.228210 150.396133,526.235962 
	C150.330933,532.782227 150.464249,538.958374 150.618347,545.507385 
	C150.623291,546.875427 150.607437,547.870605 150.391800,549.235779 
	C150.135529,567.995422 150.065323,586.385071 150.048950,604.774780 
	C150.047653,606.228271 150.420532,607.682068 150.639084,609.477051 
	C150.643158,610.501465 150.627701,611.184631 150.412903,612.234741 
	C150.342789,617.445007 150.472031,622.288330 150.622833,627.525879 
	C150.623749,629.235657 150.603104,630.551270 150.384949,632.236694 
	C150.314880,638.115356 150.442337,643.624329 150.587219,649.554199 
	C150.600616,651.941284 150.596558,653.907288 150.399963,656.127197 
	C150.155396,657.224731 150.103394,658.068420 150.051376,658.912170 
	C149.987427,659.065430 149.946381,659.331482 149.855042,659.350037 
	C149.613739,659.399170 149.128983,659.350220 149.127884,659.324158 
	C149.065491,657.827820 149.019135,656.329773 149.019089,654.831970 
	C149.015518,526.257568 149.000732,397.683167 149.093384,269.108826 
	C149.095993,265.478790 150.247665,261.849640 151.110916,258.338867 
z"/>
<path fill="#FCB229" opacity="1.000000" stroke="none" 
	d="
M874.781433,665.082642 
	C874.513733,663.303406 874.011963,661.524231 874.011597,659.744934 
	C873.985352,530.225281 874.010925,400.705597 873.967346,271.185913 
	C873.965454,265.724854 873.350037,260.264008 873.038452,254.365997 
	C873.455078,254.906647 873.853699,255.884338 874.513916,257.480957 
	C874.880981,259.343994 874.986511,260.588104 875.029419,262.304810 
	C874.966370,362.769318 874.954224,462.761200 874.972168,562.753113 
	C874.978027,595.579590 875.061707,628.406067 875.125427,661.617859 
	C875.021179,663.029663 874.901306,664.056152 874.781433,665.082642 
z"/>
<path fill="#FAC848" opacity="1.000000" stroke="none" 
	d="
M150.614166,304.866211 
	C150.630386,302.573792 150.646606,300.281342 150.786804,297.106873 
	C150.812714,292.439178 150.714676,288.653564 150.616638,284.867950 
	C150.631012,284.482239 150.645401,284.096527 150.772461,283.051392 
	C150.790741,281.884186 150.696365,281.376404 150.601990,280.868652 
	C150.616989,278.576111 150.632004,276.283539 150.772507,273.116699 
	C150.891434,269.143005 150.884857,266.043579 150.878281,262.944183 
	C150.926117,262.510651 150.973969,262.077087 151.102844,261.325745 
	C151.451462,262.781128 151.952820,264.554199 151.953308,266.327423 
	C151.988770,396.183441 151.986053,526.039490 151.967712,655.895508 
	C151.967453,657.712036 151.730545,659.528503 151.391861,661.709229 
	C151.095688,661.331421 151.011734,660.589294 150.952667,659.072327 
	C150.849213,657.489380 150.720871,656.681396 150.592499,655.873352 
	C150.596558,653.907288 150.600616,651.941284 150.740753,649.098999 
	C150.778717,642.770752 150.680588,637.318848 150.582474,631.866882 
	C150.603104,630.551270 150.623749,629.235657 150.768112,627.069458 
	C150.798630,621.435181 150.705429,616.651489 150.612228,611.867798 
	C150.627701,611.184631 150.643158,610.501465 150.785355,609.018555 
	C150.938538,600.731628 151.027039,593.244141 150.977417,585.757568 
	C150.895920,573.460022 150.724869,561.163025 150.591583,548.865845 
	C150.607437,547.870605 150.623291,546.875427 150.767151,545.050049 
	C150.794998,538.101990 150.694839,531.983948 150.594666,525.865967 
	C150.612000,524.228210 150.629333,522.590393 150.770233,520.086853 
	C150.791473,514.435730 150.689163,509.650360 150.586853,504.865021 
	C150.604813,502.901947 150.622757,500.938873 150.766296,498.097778 
	C150.802704,485.767761 150.713516,474.315826 150.624313,462.863861 
	C150.636063,461.551544 150.647797,460.239227 150.743362,458.214355 
	C150.753891,457.289520 150.680618,457.077301 150.607330,456.865051 
	C150.622421,456.180695 150.637527,455.496307 150.776245,454.022156 
	C150.808777,450.110626 150.717697,446.988892 150.626602,443.867157 
	C150.636017,437.595093 150.645432,431.322998 150.768311,424.222717 
	C150.794067,422.885956 150.706360,422.377441 150.618652,421.868896 
	C150.635330,421.183685 150.652023,420.498505 150.789520,419.047638 
	C150.815369,416.811279 150.720383,415.340607 150.625397,413.869904 
	C150.639206,413.484100 150.653015,413.098328 150.786255,411.964355 
	C150.809677,405.099854 150.713654,398.983551 150.617615,392.867249 
	C150.631332,390.574982 150.645050,388.282715 150.778442,385.108490 
	C150.808624,380.440796 150.719116,376.655090 150.629608,372.869354 
	C150.646088,372.184570 150.662567,371.499817 150.799576,370.013672 
	C150.822693,358.430695 150.725266,347.649109 150.627853,336.867493 
	C150.637482,334.575226 150.647110,332.282959 150.777130,329.103546 
	C150.803070,320.433014 150.708618,312.649597 150.614166,304.866211 
z"/>
<path fill="#CB9D4C" opacity="1.000000" stroke="none" 
	d="
M875.109741,661.232544 
	C875.061707,628.406067 874.978027,595.579590 874.972168,562.753113 
	C874.954224,462.761200 874.966370,362.769318 875.248535,262.670135 
	C875.717712,268.366577 875.905273,274.170258 876.092834,279.973969 
	C876.041931,280.740479 875.991028,281.506958 875.957520,283.114227 
	C875.965698,285.454620 875.948303,286.954254 875.948242,288.453888 
	C875.946655,408.924866 875.954041,529.395874 875.911011,649.866821 
	C875.909607,653.655457 875.388550,657.443970 875.109741,661.232544 
z"/>
<path fill="#020103" opacity="1.000000" stroke="none" 
	d="
M875.125366,661.617859 
	C875.388550,657.443970 875.909607,653.655457 875.911011,649.866821 
	C875.954041,529.395874 875.946655,408.924866 875.948242,288.453888 
	C875.948303,286.954254 875.965698,285.454620 876.037720,283.491943 
	C876.398743,284.961212 876.957703,286.893402 876.958313,288.825775 
	C876.998108,411.675018 877.007385,534.524292 876.914856,657.373474 
	C876.912231,660.851196 875.781372,664.328064 874.925171,667.700134 
	C874.744446,666.964233 874.815308,666.333618 874.833801,665.392822 
	C874.901306,664.056152 875.021179,663.029663 875.125366,661.617859 
z"/>
<path fill="#020103" opacity="1.000000" stroke="none" 
	d="
M819.575500,719.022217 
	C823.778748,718.092896 827.982056,717.163574 832.554199,716.201660 
	C832.094788,716.880249 831.362549,718.023438 830.422668,718.232361 
	C824.284546,719.596680 818.104858,721.806335 811.932434,721.826599 
	C739.329651,722.065552 666.725708,721.966492 593.962891,721.680969 
	C595.619690,721.283325 597.435608,721.054871 599.251526,721.054443 
	C667.584351,721.039673 735.917236,721.056702 804.250061,721.012634 
	C807.197266,721.010742 810.144043,720.472351 813.502441,720.119995 
	C815.801086,719.711548 817.688293,719.366882 819.575500,719.022217 
z"/>
<path fill="#020103" opacity="1.000000" stroke="none" 
	d="
M198.284668,717.784912 
	C202.073288,718.256226 206.046036,719.066650 210.766235,719.902161 
	C211.995605,720.004089 212.477509,720.080933 213.315857,720.370850 
	C215.821518,720.719238 217.970673,720.971802 220.119919,720.972717 
	C288.907928,721.001221 357.695953,720.994995 426.483948,721.059387 
	C428.720825,721.061462 430.957092,721.746765 433.193634,722.113525 
	C433.193634,722.113525 433.151184,722.153137 433.127686,722.136292 
	C394.451660,722.077515 355.799133,722.021484 317.146637,721.997864 
	C283.491364,721.977295 249.834106,722.178284 216.182663,721.819031 
	C210.265564,721.755920 204.372787,719.413818 198.284668,717.784912 
z"/>
<path fill="#3C1D01" opacity="1.000000" stroke="none" 
	d="
M813.091064,720.183838 
	C810.144043,720.472351 807.197266,721.010742 804.250061,721.012634 
	C735.917236,721.056702 667.584351,721.039673 599.251526,721.054443 
	C597.435608,721.054871 595.619690,721.283325 593.507751,721.666748 
	C593.179688,722.119934 593.147583,722.311829 593.044861,722.787048 
	C592.658264,722.280823 592.342224,721.491272 592.505859,720.346863 
	C639.239807,720.001587 685.494202,719.994446 731.748535,720.027344 
	C758.862732,720.046570 785.976868,720.129578 813.091064,720.183838 
z"/>
<path fill="#020103" opacity="1.000000" stroke="none" 
	d="
M609.147034,779.713623 
	C606.717957,774.221863 604.083374,768.582153 602.196228,762.702515 
	C600.435547,757.216614 599.469177,751.475769 598.159790,745.459351 
	C599.074097,746.883728 600.265869,748.610291 600.841675,750.522461 
	C603.738770,760.142029 606.475037,769.809998 609.147034,779.713623 
z"/>
<path fill="#FAC848" opacity="1.000000" stroke="none" 
	d="
M666.004944,790.565918 
	C653.228638,790.595398 640.305786,790.441406 627.401917,789.864380 
	C623.721558,789.699768 620.096252,788.306641 616.222290,787.190063 
	C629.407227,790.651123 643.105896,787.934509 656.642822,788.768311 
	C659.735168,788.958801 662.792297,789.722107 666.004944,790.565918 
z"/>
<path fill="#FAC848" opacity="1.000000" stroke="none" 
	d="
M409.621216,786.894226 
	C407.181183,787.882629 404.359406,789.780579 401.496613,789.844604 
	C387.954163,790.147522 374.400452,789.949280 360.374634,789.949341 
	C361.967926,789.611389 364.034882,788.962585 366.107239,788.944763 
	C376.920868,788.851868 387.739502,789.080078 398.548462,788.839844 
	C402.118011,788.760559 405.663910,787.616272 409.621216,786.894226 
z"/>
<path fill="#020103" opacity="1.000000" stroke="none" 
	d="
M352.346741,796.980347 
	C352.657684,802.117554 352.720093,807.148804 352.872986,812.590332 
	C349.139069,809.882080 348.707520,801.838440 352.346741,796.980347 
z"/>
<path fill="#020103" opacity="1.000000" stroke="none" 
	d="
M432.500427,724.150635 
	C431.549805,729.405090 430.271759,734.784607 428.882874,740.533447 
	C429.905701,735.360474 431.039368,729.818054 432.500427,724.150635 
z"/>
<path fill="#020103" opacity="1.000000" stroke="none" 
	d="
M876.321167,279.632568 
	C875.905273,274.170258 875.717712,268.366577 875.311035,262.197510 
	C874.986511,260.588104 874.880981,259.343994 874.737549,257.723694 
	C875.416321,258.740295 876.715332,260.119385 876.748657,261.528381 
	C876.888489,267.444458 876.649658,273.369446 876.321167,279.632568 
z"/>
<path fill="#020103" opacity="1.000000" stroke="none" 
	d="
M596.078491,734.766113 
	C594.930298,731.612244 594.004944,728.204895 593.115295,724.407227 
	C594.201050,727.515503 595.251160,731.014038 596.078491,734.766113 
z"/>
<path fill="#020103" opacity="1.000000" stroke="none" 
	d="
M834.262939,715.878845 
	C835.690491,714.948853 837.500305,714.046570 839.651123,713.085754 
	C838.209778,713.987061 836.427490,714.946777 834.262939,715.878845 
z"/>
<path fill="#020103" opacity="1.000000" stroke="none" 
	d="
M598.020996,742.822937 
	C597.262024,741.288147 596.726501,739.525452 596.197510,737.411438 
	C596.884155,738.905090 597.564331,740.750061 598.020996,742.822937 
z"/>
<path fill="#FCB229" opacity="1.000000" stroke="none" 
	d="
M193.597229,214.841400 
	C192.488190,215.445343 190.993607,216.032410 189.242920,216.425323 
	C190.395096,215.762283 191.803391,215.293396 193.597229,214.841400 
z"/>
<path fill="#020103" opacity="1.000000" stroke="none" 
	d="
M844.146729,710.920349 
	C844.628174,710.301697 845.468689,709.682251 846.614502,708.980347 
	C846.115173,709.571777 845.310547,710.245667 844.146729,710.920349 
z"/>
<path fill="#020103" opacity="1.000000" stroke="none" 
	d="
M355.254822,816.108337 
	C356.106293,816.260742 356.995911,816.771790 358.064606,817.526733 
	C357.260101,817.336121 356.276520,816.901550 355.254822,816.108337 
z"/>
<path fill="#FAC848" opacity="1.000000" stroke="none" 
	d="
M412.674835,784.980408 
	C412.149628,785.554504 411.319580,786.225586 410.148712,786.904602 
	C410.661926,786.300903 411.515961,785.689148 412.674835,784.980408 
z"/>
<path fill="#020103" opacity="1.000000" stroke="none" 
	d="
M353.025574,813.400452 
	C353.653961,813.787048 354.319672,814.518005 355.114716,815.516235 
	C354.516968,815.103882 353.789917,814.424377 353.025574,813.400452 
z"/>
<path fill="#6C4B14" opacity="1.000000" stroke="none" 
	d="
M150.399963,656.127197 
	C150.720871,656.681396 150.849213,657.489380 150.897049,658.704590 
	C150.816528,659.111694 150.430237,659.025208 150.240814,658.968689 
	C150.103394,658.068420 150.155396,657.224731 150.399963,656.127197 
z"/>
<path fill="#FCB229" opacity="1.000000" stroke="none" 
	d="
M872.450134,251.496048 
	C872.021179,251.097916 871.535461,250.357513 871.070435,249.258881 
	C871.525269,249.651703 871.959290,250.402740 872.450134,251.496048 
z"/>
<path fill="#FCB229" opacity="1.000000" stroke="none" 
	d="
M873.114868,253.684967 
	C872.805542,253.448868 872.522522,252.894043 872.302185,252.012756 
	C872.623657,252.246277 872.882446,252.806259 873.114868,253.684967 
z"/>
<path fill="#FAC848" opacity="1.000000" stroke="none" 
	d="
M616.146729,786.567017 
	C615.804260,786.657288 615.334106,786.510315 614.937683,786.173340 
	C615.347290,786.098816 615.683228,786.214294 616.146729,786.567017 
z"/>
<path fill="#FAC848" opacity="1.000000" stroke="none" 
	d="
M668.088196,791.698364 
	C667.666138,791.776245 667.046021,791.571533 666.212708,791.121643 
	C666.629700,791.056274 667.259949,791.235962 668.088196,791.698364 
z"/>
<path fill="#FAC848" opacity="1.000000" stroke="none" 
	d="
M359.672913,789.946533 
	C359.492859,790.237305 359.012360,790.569153 358.225891,790.948181 
	C358.404114,790.659424 358.888306,790.323486 359.672913,789.946533 
z"/>
<path fill="#FCB229" opacity="1.000000" stroke="none" 
	d="
M871.103394,248.631653 
	C870.757324,248.378998 870.435181,247.756607 870.077759,246.774063 
	C870.404053,247.029907 870.765686,247.645920 871.103394,248.631653 
z"/>
<path fill="#020103" opacity="1.000000" stroke="none" 
	d="
M670.351440,814.870483 
	C670.261841,814.727112 670.402832,814.492126 670.831543,814.221802 
	C670.832642,814.317322 670.653503,814.514771 670.351440,814.870483 
z"/>
<path fill="#020103" opacity="1.000000" stroke="none" 
	d="
M668.157837,816.868713 
	C668.103455,816.707397 668.294800,816.475830 668.776367,816.243042 
	C668.789246,816.386047 668.568237,816.571594 668.157837,816.868713 
z"/>
<path fill="#020103" opacity="1.000000" stroke="none" 
	d="
M831.937805,214.045700 
	C831.893433,214.094284 832.067444,213.811417 832.067444,213.811417 
	C832.067444,213.811417 832.041443,213.984970 831.971924,214.042450 
	C831.902405,214.099915 831.982178,213.997116 831.937805,214.045700 
z"/>
<path fill="#FAC848" opacity="1.000000" stroke="none" 
	d="
M357.731567,791.001587 
	C357.732727,791.185547 357.436371,791.437134 356.867798,791.808228 
	C356.875092,791.641602 357.154602,791.355469 357.731567,791.001587 
z"/>
<path fill="#020103" opacity="1.000000" stroke="none" 
	d="
M840.194458,712.883301 
	C840.151550,712.746826 840.312683,712.550659 840.728394,712.379089 
	C840.725830,712.493042 840.531006,712.632996 840.194458,712.883301 
z"/>
<path fill="#020103" opacity="1.000000" stroke="none" 
	d="
M842.151855,711.815674 
	C842.067810,711.627869 842.239319,711.417236 842.712280,711.268555 
	C842.738220,711.434509 842.536133,711.588623 842.151855,711.815674 
z"/>
<path fill="#020103" opacity="1.000000" stroke="none" 
	d="
M849.873291,706.755249 
	C849.868958,706.611938 850.088013,706.357788 850.547485,706.027588 
	C850.623657,706.248657 850.393311,706.479614 849.873291,706.755249 
z"/>
<path fill="#0F1010" opacity="1.000000" stroke="none" 
	d="
M829.996277,257.462036 
	C831.754822,260.247498 833.513367,263.032928 835.567505,266.387360 
	C835.905029,267.640656 835.946899,268.324921 835.788208,269.149933 
	C835.334473,269.503845 835.129456,269.756195 834.735840,270.379761 
	C834.340881,272.353516 834.044800,273.995178 834.044434,275.636932 
	C834.022644,387.484100 834.019836,499.331299 834.062866,611.178467 
	C834.063599,613.106750 834.642639,615.034729 835.073303,617.156372 
	C835.375183,617.598877 835.592529,617.809814 835.904297,618.215759 
	C835.961731,618.448853 835.985596,618.928345 835.985596,618.928345 
	C833.500061,624.891479 827.669434,626.844971 822.135010,629.540161 
	C745.245544,629.078125 669.010254,629.008423 592.774902,628.964294 
	C589.124756,628.962158 585.474426,629.185303 581.460205,629.319153 
	C580.124695,629.323853 579.153198,629.312927 577.726929,629.178955 
	C574.456909,629.137512 571.641785,629.219055 568.369263,629.315186 
	C555.289856,629.545044 542.667419,629.954895 530.046021,629.928772 
	C512.215820,629.891907 494.386780,629.444336 476.556335,629.354065 
	C469.261200,629.317139 461.964569,629.874756 454.666840,629.931091 
	C450.369720,629.964294 446.068359,629.351624 441.770081,629.366516 
	C430.877197,629.404236 419.984985,629.632080 408.778015,629.497009 
	C387.525665,629.132996 366.587860,629.049255 345.649963,629.012573 
	C345.068939,629.011536 344.487061,629.514709 343.490265,629.865112 
	C338.114105,629.728088 333.153900,629.334900 328.192322,629.316589 
	C285.845825,629.160461 243.499100,629.072327 201.152435,628.963867 
	C198.483566,626.904846 195.814713,624.845825 192.938019,622.262939 
	C192.570328,621.469238 192.366653,621.238037 192.119171,621.045349 
	C192.119171,621.045349 191.942062,620.986572 191.955460,620.543213 
	C191.653015,618.723389 191.337158,617.346924 191.261398,615.637878 
	C191.659424,613.495300 191.955215,611.685181 191.955582,609.875122 
	C191.977753,498.565247 191.975998,387.255402 191.973190,275.945526 
	C191.973145,274.280121 192.039917,272.600586 191.825516,270.960327 
	C191.778595,270.601410 190.660843,270.382416 189.938110,269.964233 
	C189.839951,269.829468 189.733154,269.513611 189.732437,269.143982 
	C190.138763,266.868561 190.545807,264.962830 190.952850,263.057068 
	C191.789597,262.066254 192.626343,261.075439 193.940826,259.817902 
	C194.633789,259.354736 194.812561,259.129333 194.954895,258.875031 
	C194.954895,258.875031 194.960907,258.951660 195.242859,258.881287 
	C196.000931,258.178314 196.477081,257.545715 196.953217,256.913116 
	C196.953217,256.913116 196.965286,256.981995 197.126678,256.856628 
	C197.550568,256.562622 197.770416,256.349915 197.947617,256.093140 
	C197.947617,256.093140 197.996719,255.934280 198.340744,255.885727 
	C199.118637,255.515488 199.552505,255.193802 199.966446,254.911789 
	C199.946503,254.951477 199.869354,254.907440 200.279602,254.905212 
	C207.424103,254.264999 214.153351,253.147446 220.893509,253.077072 
	C242.977905,252.846527 265.066345,253.017532 287.153015,252.964417 
	C289.089386,252.959747 291.024536,252.445068 293.390778,252.099731 
	C295.559845,252.076004 297.298401,252.119858 299.247955,252.343933 
	C300.293640,252.403885 301.128265,252.283585 302.306763,252.096939 
	C303.113129,252.075684 303.575714,252.120789 304.325867,252.363770 
	C306.395874,252.431458 308.178284,252.301285 310.342682,252.103546 
	C311.496552,252.080856 312.268372,252.125717 313.342896,252.370468 
	C315.750519,252.436447 317.855438,252.302536 320.342255,252.100769 
	C321.495819,252.077072 322.267487,252.121216 323.307739,252.359848 
	C325.037567,252.423950 326.498779,252.293594 328.341766,252.095001 
	C329.494904,252.072586 330.266327,252.118393 331.202454,252.322052 
	C331.899536,252.374496 332.431854,252.269073 333.394287,252.094849 
	C335.561859,252.074570 337.299347,252.123047 339.202393,252.327667 
	C339.900055,252.379379 340.432159,252.274948 341.394470,252.102173 
	C343.562378,252.078918 345.300079,252.123993 347.387299,252.381454 
	C348.719238,252.727936 349.701569,252.978363 350.684113,252.979126 
	C378.667999,253.001205 406.651886,253.010590 434.635681,252.963623 
	C436.077759,252.961197 437.518951,252.441711 439.380951,252.093353 
	C441.217743,252.070480 442.634186,252.117218 444.398071,252.377716 
	C447.061188,252.727402 449.376526,252.976517 451.692505,252.983017 
	C575.794739,253.331421 699.896973,253.659393 824.000854,253.993500 
	C824.002441,253.997559 824.012512,253.995255 824.202087,254.176636 
	C824.706665,254.511551 825.021729,254.665085 825.222534,254.829376 
	C825.108276,254.840164 825.101135,254.610779 825.310974,254.886169 
	C826.145508,255.407104 826.770203,255.652634 827.692383,255.973953 
	C828.658630,256.520508 829.327454,256.991302 829.996277,257.462036 
M454.281952,312.588196 
	C453.751892,312.917694 453.221802,313.247192 452.772583,313.620453 
	C452.772583,313.620453 452.784485,313.529297 452.092102,313.637360 
	C450.717041,314.419556 449.341980,315.201752 447.998413,316.007324 
	C447.998413,316.007324 447.996796,315.968201 447.420258,316.059692 
	C447.238708,316.358459 447.057159,316.657196 446.982758,316.937653 
	C446.982758,316.937653 446.960815,316.831207 446.270874,316.801666 
	C445.157440,317.520233 444.044006,318.238831 442.988983,318.987366 
	C442.988983,318.987366 442.996429,318.922150 442.410095,318.984619 
	C442.156464,319.249664 441.902863,319.514709 441.835907,319.693726 
	C441.835907,319.693726 441.733032,319.515808 441.117859,319.691925 
	C440.418304,320.168091 439.718750,320.644257 438.344666,321.229492 
	C408.195160,340.883362 387.695831,367.731079 377.293854,403.065125 
	C375.682220,411.640930 373.414886,420.158600 372.647675,428.809296 
	C371.915009,437.070343 372.744354,445.469849 372.942322,454.739258 
	C374.527924,463.643829 375.040863,472.906189 377.872162,481.395264 
	C397.077179,538.977600 436.950043,572.095215 497.959412,580.849548 
	C508.278839,580.788879 518.598267,580.728210 529.964111,580.647888 
	C530.499146,580.237549 531.034119,579.827209 531.647827,579.384888 
	C531.647827,579.384888 531.661011,579.391235 532.717163,579.157837 
	C536.343506,578.875671 540.152100,579.207336 543.561707,578.195068 
	C553.343811,575.290955 563.205322,572.419006 572.599426,568.491089 
	C593.705139,559.666260 610.182861,544.596985 624.633179,527.323608 
	C633.734436,516.444214 640.318848,503.949432 645.191040,490.573456 
	C649.641541,478.355042 653.273682,465.995636 653.691406,452.279907 
	C653.147339,441.666290 652.603271,431.052673 652.351868,419.686615 
	C650.954102,413.425049 649.823242,407.089508 648.112000,400.914825 
	C641.001709,375.258240 626.489441,354.184235 607.275696,336.159760 
	C591.345825,321.215942 572.272583,311.800476 550.992676,304.979858 
	C530.589966,299.069611 509.942444,297.841797 488.272858,301.928040 
	C483.133270,303.075378 477.993652,304.222748 472.168396,305.505768 
	C467.007446,307.564850 461.846466,309.623962 456.860107,311.689209 
	C456.860107,311.689209 456.842407,311.515411 456.213257,311.659058 
	C455.750366,312.036346 455.287476,312.413666 454.899567,312.820526 
	C454.899567,312.820526 454.914093,312.741211 454.281952,312.588196 
M379.500000,626.026855 
	C320.487000,626.026855 261.474030,626.026855 202.461029,626.026855 
	C202.461411,626.440430 202.461807,626.854065 202.462189,627.267639 
	C409.533722,627.267639 616.605286,627.267639 823.676819,627.267639 
	C823.676819,626.854065 823.676880,626.440430 823.676880,626.026855 
	C675.951294,626.026855 528.225647,626.026855 379.500000,626.026855 
z"/>
<path fill="#F59D05" opacity="1.000000" stroke="none" 
	d="
M838.106689,276.003479 
	C838.733154,277.384766 839.910034,278.769043 839.902649,280.146912 
	C839.808289,297.739471 839.470459,315.330658 839.362976,332.923218 
	C839.324829,339.162140 839.944702,345.405060 839.908325,351.644073 
	C839.841858,363.042023 839.444702,374.437775 839.330139,385.835938 
	C839.297119,389.131195 839.958923,392.431244 839.962524,395.729462 
	C840.007629,437.338989 839.990601,478.948639 839.989197,520.558228 
	C839.988770,532.147278 839.993286,543.736267 839.985535,555.325317 
	C839.972534,574.706665 839.983521,594.088135 839.864746,613.468872 
	C839.856445,614.824280 838.861572,616.173645 838.091370,617.277893 
	C837.903931,569.097168 837.960693,521.164307 837.994629,473.231445 
	C838.041138,407.488800 838.070190,341.746124 838.106689,276.003479 
z"/>
<path fill="#EE9D13" opacity="1.000000" stroke="none" 
	d="
M409.092499,629.783875 
	C419.984985,629.632080 430.877197,629.404236 441.770081,629.366516 
	C446.068359,629.351624 450.369720,629.964294 454.666840,629.931091 
	C461.964569,629.874756 469.261200,629.317139 476.556335,629.354065 
	C494.386780,629.444336 512.215820,629.891907 530.046021,629.928772 
	C542.667419,629.954895 555.289856,629.545044 568.733765,629.460266 
	C572.431091,629.494507 575.306396,629.398254 578.181763,629.302002 
	C579.153198,629.312927 580.124695,629.323853 581.850281,629.466736 
	C588.077942,629.727417 593.551453,629.856201 599.000244,630.235596 
	C598.993835,630.653259 599.012024,630.820190 599.030273,630.987061 
	C469.315460,630.991882 339.600647,631.006042 209.885864,630.938232 
	C207.145096,630.936768 204.404831,629.989380 201.408386,629.223511 
	C243.499100,629.072327 285.845825,629.160461 328.192322,629.316589 
	C333.153900,629.334900 338.114105,629.728088 343.964264,629.835693 
	C366.266541,629.743896 387.679535,629.763855 409.092499,629.783875 
z"/>
<path fill="#F59D05" opacity="1.000000" stroke="none" 
	d="
M187.990234,616.004456 
	C187.333374,612.453369 186.120651,608.901794 186.123535,605.351196 
	C186.132324,594.559204 186.793930,583.768555 186.852478,572.975464 
	C186.906204,563.074463 186.375534,553.171326 186.346741,543.268433 
	C186.321930,534.739319 186.683960,526.209778 186.788223,517.679382 
	C186.830734,514.200745 186.656754,510.718872 186.548309,507.239532 
	C186.533066,506.751068 186.221313,506.266937 186.228149,505.783356 
	C186.382324,494.885773 186.649109,483.988953 186.707870,473.091034 
	C186.751312,465.034271 186.412582,456.975494 186.452087,448.918640 
	C186.525635,433.916382 186.861115,418.914948 186.869446,403.913025 
	C186.874100,395.537903 186.313461,387.163544 186.243652,378.786865 
	C186.187439,372.042297 186.578537,365.294952 186.589264,358.548523 
	C186.595032,354.926880 186.063385,351.305542 186.041031,347.682434 
	C185.966400,335.590454 185.929962,323.497040 186.033600,311.405487 
	C186.152100,297.578583 186.432907,283.753021 186.675705,269.927460 
	C186.679886,269.689758 187.093964,269.459229 187.653412,269.581421 
	C187.990112,385.293152 187.990173,500.648804 187.990234,616.004456 
z"/>
<path fill="#CB9D4C" opacity="1.000000" stroke="none" 
	d="
M313.040222,252.170578 
	C312.268372,252.125717 311.496552,252.080856 309.922119,252.050446 
	C307.425781,252.098572 305.732025,252.132233 304.038269,252.165894 
	C303.575714,252.120789 303.113129,252.075684 301.942871,252.043655 
	C300.502441,252.092377 299.769684,252.128036 299.036926,252.163696 
	C297.298401,252.119858 295.559845,252.076004 292.927307,252.046768 
	C283.091339,252.055817 274.148712,252.114594 265.207581,252.026733 
	C256.119110,251.937454 247.032043,251.703613 238.247971,251.351044 
	C239.738953,251.110504 240.926331,251.051987 242.113708,250.993439 
	C423.154602,250.988129 604.195496,250.982986 785.236389,250.975220 
	C787.234863,250.975128 789.233276,250.940582 792.058044,250.896149 
	C794.266907,251.073669 795.649414,251.277161 796.577820,251.613144 
	C793.130249,251.844421 790.136780,252.028732 787.143372,252.029419 
	C724.050476,252.043793 660.957520,252.020340 597.864624,252.040573 
	C546.593262,252.057037 495.321930,252.121017 444.050598,252.163940 
	C442.634186,252.117218 441.217743,252.070480 438.917542,252.039673 
	C407.701752,252.093414 377.369781,252.131241 347.037811,252.169067 
	C345.300079,252.123993 343.562378,252.078918 341.074524,252.050842 
	C339.895203,252.102386 339.466003,252.136963 339.036804,252.171539 
	C337.299347,252.123047 335.561859,252.074570 333.074524,252.043320 
	C331.895691,252.095093 331.466705,252.129639 331.037720,252.164185 
	C330.266327,252.118393 329.494904,252.072586 327.934021,252.041718 
	C325.776062,252.092896 324.407623,252.129135 323.039185,252.165375 
	C322.267487,252.121216 321.495819,252.077072 319.912109,252.047791 
	C317.080170,252.098618 315.060181,252.134598 313.040222,252.170578 
z"/>
<path fill="#FAC848" opacity="1.000000" stroke="none" 
	d="
M838.072754,275.625153 
	C838.070190,341.746124 838.041138,407.488800 837.994629,473.231445 
	C837.960693,521.164307 837.903931,569.097168 837.787842,617.491577 
	C837.249695,618.341980 836.780945,618.730774 836.148926,619.023926 
	C835.985596,618.928345 835.961731,618.448853 836.007568,617.891357 
	C835.998108,616.887024 835.942688,616.440186 835.951111,615.678833 
	C836.039490,614.937805 836.064087,614.511108 836.414185,613.902649 
	C836.787720,612.493408 836.835693,611.265991 836.969482,609.573486 
	C837.040100,498.063507 837.028503,387.018646 836.978271,275.973755 
	C836.977356,274.028778 836.510010,272.084015 836.284119,269.938232 
	C836.292664,269.454742 836.186279,269.212006 835.988770,269.009216 
	C835.946899,268.324921 835.905029,267.640656 835.824402,266.619202 
	C836.357849,266.684998 836.929993,267.087952 837.691528,268.136841 
	C837.948120,270.178284 838.015320,271.573761 838.082458,272.969238 
	C838.067871,273.728424 838.053284,274.487640 838.072754,275.625153 
z"/>
<path fill="#FAC848" opacity="1.000000" stroke="none" 
	d="
M188.295776,615.981079 
	C187.990173,500.648804 187.990112,385.293152 187.970428,269.469055 
	C188.780869,267.158997 189.610931,265.317352 190.696930,263.266388 
	C190.545807,264.962830 190.138763,266.868561 189.496811,269.529022 
	C189.169128,272.941223 188.995667,275.598694 188.995285,278.256195 
	C188.982544,364.989777 188.970184,451.723328 188.997833,538.456909 
	C189.006073,564.258301 189.133636,590.059753 189.206512,615.861145 
	C189.004776,615.893372 188.803055,615.925598 188.295776,615.981079 
z"/>
<path fill="#020103" opacity="1.000000" stroke="none" 
	d="
M189.168793,615.885315 
	C189.133636,590.059753 189.006073,564.258301 188.997833,538.456909 
	C188.970184,451.723328 188.982544,364.989777 188.995285,278.256195 
	C188.995667,275.598694 189.169128,272.941223 189.497528,269.898682 
	C189.733154,269.513611 189.839951,269.829468 189.931458,270.424072 
	C190.022095,383.045380 190.013550,495.072113 190.062256,607.098816 
	C190.063538,610.056152 190.687653,613.013184 191.021301,615.970398 
	C191.337158,617.346924 191.653015,618.723389 191.983215,620.454102 
	C191.594666,620.225647 191.191742,619.642944 190.484024,618.603149 
	C189.811157,617.377197 189.443100,616.608337 189.075043,615.839539 
	C189.075043,615.839539 189.131058,615.909485 189.168793,615.885315 
z"/>
<path fill="#F59D05" opacity="1.000000" stroke="none" 
	d="
M362.011261,817.977783 
	C363.932953,817.650818 365.854553,817.038696 367.776428,817.037781 
	C464.316132,816.991455 560.855896,816.994751 657.395630,817.019531 
	C659.032349,817.019958 660.668945,817.349121 662.165527,817.784912 
	C562.020691,818.022522 462.015961,818.000183 362.011261,817.977783 
z"/>
<path fill="#F9CD6B" opacity="1.000000" stroke="none" 
	d="
M361.998657,818.176086 
	C462.015961,818.000183 562.020691,818.022522 662.488892,818.040039 
	C662.952332,818.035217 662.990295,818.385315 663.054138,818.549683 
	C662.128052,818.809082 661.138184,818.987427 660.148254,818.987366 
	C561.042664,818.980408 461.937073,818.959961 362.354645,818.848450 
	C361.877808,818.756592 361.986053,818.374329 361.998657,818.176086 
z"/>
<path fill="#6C4B14" opacity="1.000000" stroke="none" 
	d="
M599.024963,629.984924 
	C593.551453,629.856201 588.077942,629.727417 582.214355,629.451111 
	C585.474426,629.185303 589.124756,628.962158 592.774902,628.964294 
	C669.010254,629.008423 745.245544,629.078125 821.785645,629.438965 
	C821.886780,629.715393 821.683167,629.695618 820.744995,629.825806 
	C818.510559,629.982422 817.010681,629.995239 815.510864,629.995178 
	C743.348877,629.992432 671.186951,629.988647 599.024963,629.984924 
z"/>
<path fill="#F9CD6B" opacity="1.000000" stroke="none" 
	d="
M813.502441,720.119995 
	C785.976868,720.129578 758.862732,720.046570 731.748535,720.027344 
	C685.494202,719.994446 639.239807,720.001587 592.524292,720.021362 
	C593.464478,719.702393 594.865784,719.049988 596.267273,719.049377 
	C669.868103,719.017456 743.468994,719.040588 817.069824,719.061523 
	C817.568726,719.061646 818.067566,719.110840 819.070984,719.079712 
	C817.688293,719.366882 815.801086,719.711548 813.502441,720.119995 
z"/>
<path fill="#FAC848" opacity="1.000000" stroke="none" 
	d="
M599.000244,630.235596 
	C671.186951,629.988647 743.348877,629.992432 815.510864,629.995178 
	C817.010681,629.995239 818.510559,629.982422 820.467163,629.955994 
	C818.852844,630.277161 816.781860,630.914490 814.710571,630.915894 
	C743.127258,630.965393 671.544006,630.954712 599.495483,630.969849 
	C599.012024,630.820190 598.993835,630.653259 599.000244,630.235596 
z"/>
<path fill="#F9CD6B" opacity="1.000000" stroke="none" 
	d="
M212.959412,720.157837 
	C212.477509,720.080933 211.995605,720.004089 211.152786,719.843018 
	C212.579437,719.510498 214.366882,719.045776 216.154556,719.044861 
	C286.596527,719.007874 357.038513,719.010620 427.480499,719.027893 
	C429.132629,719.028259 430.784668,719.252686 432.286743,719.671021 
	C391.859985,719.979675 351.583313,719.972961 311.306610,720.005493 
	C278.524170,720.031921 245.741806,720.105286 212.959412,720.157837 
z"/>
<path fill="#3C1D01" opacity="1.000000" stroke="none" 
	d="
M213.315857,720.370911 
	C245.741806,720.105286 278.524170,720.031921 311.306610,720.005493 
	C351.583313,719.972961 391.859985,719.979675 432.614929,719.936523 
	C433.271881,720.531555 433.450623,721.159363 433.411499,721.950378 
	C430.957092,721.746765 428.720825,721.061462 426.483948,721.059387 
	C357.695953,720.994995 288.907928,721.001221 220.119919,720.972717 
	C217.970673,720.971802 215.821518,720.719238 213.315857,720.370911 
z"/>
<path fill="#FAC848" opacity="1.000000" stroke="none" 
	d="
M241.749161,250.781769 
	C240.926331,251.051987 239.738953,251.110504 237.789795,251.383011 
	C225.379227,252.098480 213.730408,252.599960 202.062164,253.081253 
	C202.042709,253.061066 202.001328,253.023224 202.001328,253.023224 
	C204.208206,252.077164 206.403473,250.350281 208.623962,250.317200 
	C219.540497,250.154587 230.463745,250.441727 241.749161,250.781769 
z"/>
<path fill="#FAC848" opacity="1.000000" stroke="none" 
	d="
M797.031982,251.480652 
	C795.649414,251.277161 794.266907,251.073669 792.536621,250.876465 
	C801.614014,251.091370 811.039124,251.299988 820.685303,251.823700 
	C820.906311,252.138794 820.868286,252.179031 820.439209,252.168213 
	C812.350769,251.931808 804.691345,251.706223 797.031982,251.480652 
z"/>
<path fill="#F59D05" opacity="1.000000" stroke="none" 
	d="
M838.361328,272.779419 
	C838.015320,271.573761 837.948120,270.178284 837.864563,268.359680 
	C840.790283,269.031738 840.276917,270.715057 838.361328,272.779419 
z"/>
<path fill="#FAC848" opacity="1.000000" stroke="none" 
	d="
M829.847656,257.148376 
	C829.327454,256.991302 828.658630,256.520508 827.596069,255.748489 
	C827.202332,255.447235 826.998474,255.001892 827.011841,254.984467 
	C827.025208,254.967026 827.049927,254.930664 827.049927,254.930664 
	C827.932983,255.565323 828.816040,256.199982 829.847656,257.148376 
z"/>
<path fill="#020103" opacity="1.000000" stroke="none" 
	d="
M196.668213,257.007263 
	C196.477081,257.545715 196.000931,258.178314 195.209686,258.861877 
	C195.390793,258.309021 195.887009,257.705231 196.668213,257.007263 
z"/>
<path fill="#FAC848" opacity="1.000000" stroke="none" 
	d="
M823.816284,253.158508 
	C824.777649,253.563354 825.738953,253.968216 826.875122,254.651871 
	C827.049927,254.930664 827.025208,254.967026 826.689880,254.955246 
	C825.936768,254.832565 825.518921,254.721664 825.101135,254.610779 
	C825.101135,254.610779 825.108276,254.840164 825.101440,254.565735 
	C824.733887,254.192612 824.373230,254.093933 824.012512,253.995255 
	C824.012512,253.995255 824.002441,253.997559 823.914734,253.818512 
	C823.827026,253.639465 823.761047,253.254776 823.777405,253.232147 
	C823.793762,253.209534 823.816284,253.158493 823.816284,253.158508 
z"/>
<path fill="#FAC848" opacity="1.000000" stroke="none" 
	d="
M189.085236,616.195129 
	C189.443100,616.608337 189.811157,617.377197 190.250427,618.460205 
	C189.912903,618.033203 189.504166,617.291992 189.085236,616.195129 
z"/>
<path fill="#FAC848" opacity="1.000000" stroke="none" 
	d="
M820.927002,252.120453 
	C821.782043,252.277634 822.616272,252.453140 823.633423,252.893570 
	C823.816284,253.158493 823.793762,253.209534 823.460938,253.188202 
	C822.374878,252.837585 821.621582,252.508301 820.868286,252.179016 
	C820.868286,252.179031 820.906311,252.138794 820.927002,252.120453 
z"/>
<path fill="#FAC848" opacity="1.000000" stroke="none" 
	d="
M200.011368,254.030548 
	C200.480011,253.717239 200.948654,253.403931 201.709305,253.056915 
	C202.001328,253.023224 202.042709,253.061066 201.918793,253.344177 
	C201.226379,253.783630 200.657867,253.939987 200.070526,254.079102 
	C200.051682,254.061874 200.011368,254.030548 200.011368,254.030548 
z"/>
<path fill="#FAC848" opacity="1.000000" stroke="none" 
	d="
M198.063919,255.526886 
	C198.505539,255.086182 198.947159,254.645477 199.700073,254.117676 
	C200.011368,254.030548 200.051682,254.061874 200.023224,254.283966 
	C199.994766,254.506058 199.869354,254.907440 199.869354,254.907440 
	C199.869354,254.907440 199.946503,254.951477 199.628738,254.964294 
	C198.895294,255.160355 198.479599,255.343628 198.063919,255.526886 
z"/>
<path fill="#020103" opacity="1.000000" stroke="none" 
	d="
M198.102570,255.636780 
	C198.479599,255.343628 198.895294,255.160355 199.648682,254.924591 
	C199.552505,255.193802 199.118637,255.515488 198.420807,255.908127 
	C198.156845,255.979080 198.141205,255.746658 198.102570,255.636780 
z"/>
<path fill="#020103" opacity="1.000000" stroke="none" 
	d="
M197.704163,256.137848 
	C197.770416,256.349915 197.550568,256.562622 197.091721,256.855408 
	C196.983368,256.642609 197.171814,256.376923 197.704163,256.137848 
z"/>
<path fill="#020103" opacity="1.000000" stroke="none" 
	d="
M194.738342,258.947571 
	C194.812561,259.129333 194.633789,259.354736 194.230896,259.648254 
	C194.068848,259.415405 194.228363,259.173676 194.738342,258.947571 
z"/>
<path fill="#020103" opacity="1.000000" stroke="none" 
	d="
M192.160843,621.289246 
	C192.366653,621.238037 192.570328,621.469238 192.849564,621.939392 
	C192.642166,622.027527 192.386703,621.825317 192.160843,621.289246 
z"/>
<path fill="#6C4B14" opacity="1.000000" stroke="none" 
	d="
M150.391785,549.235779 
	C150.724869,561.163025 150.895920,573.460022 150.977417,585.757568 
	C151.027039,593.244141 150.938538,600.731628 150.765808,608.677246 
	C150.420532,607.682068 150.047653,606.228271 150.048950,604.774780 
	C150.065323,586.385071 150.135529,567.995422 150.391785,549.235779 
z"/>
<path fill="#6C4B14" opacity="1.000000" stroke="none" 
	d="
M150.422836,463.233093 
	C150.713516,474.315826 150.802704,485.767761 150.743988,497.677612 
	C150.471161,486.624420 150.346252,475.113403 150.422836,463.233093 
z"/>
<path fill="#6C4B14" opacity="1.000000" stroke="none" 
	d="
M150.433731,337.239594 
	C150.725266,347.649109 150.822693,358.430695 150.778625,369.671661 
	C150.504639,359.291229 150.372116,348.451477 150.433731,337.239594 
z"/>
<path fill="#6C4B14" opacity="1.000000" stroke="none" 
	d="
M150.412170,305.235046 
	C150.708618,312.649597 150.803070,320.433014 150.752197,328.674774 
	C150.474655,321.290070 150.342407,313.446960 150.412170,305.235046 
z"/>
<path fill="#6C4B14" opacity="1.000000" stroke="none" 
	d="
M150.417084,393.236206 
	C150.713654,398.983551 150.809677,405.099854 150.764038,411.675446 
	C150.487106,405.958221 150.351822,399.781677 150.417084,393.236206 
z"/>
<path fill="#6C4B14" opacity="1.000000" stroke="none" 
	d="
M150.396149,526.235962 
	C150.694839,531.983948 150.794998,538.101990 150.746368,544.677246 
	C150.464249,538.958374 150.330933,532.782227 150.396149,526.235962 
z"/>
<path fill="#6C4B14" opacity="1.000000" stroke="none" 
	d="
M150.384949,632.236694 
	C150.680588,637.318848 150.778717,642.770752 150.723328,648.677979 
	C150.442337,643.624329 150.314880,638.115356 150.384949,632.236694 
z"/>
<path fill="#6C4B14" opacity="1.000000" stroke="none" 
	d="
M150.385742,505.231506 
	C150.689163,509.650360 150.791473,514.435730 150.748779,519.677979 
	C150.464066,515.289246 150.324341,510.443634 150.385742,505.231506 
z"/>
<path fill="#6C4B14" opacity="1.000000" stroke="none" 
	d="
M150.412903,612.234741 
	C150.705429,616.651489 150.798630,621.435181 150.746552,626.675293 
	C150.472031,622.288330 150.342789,617.445007 150.412903,612.234741 
z"/>
<path fill="#6C4B14" opacity="1.000000" stroke="none" 
	d="
M150.430481,373.228973 
	C150.719116,376.655090 150.808624,380.440796 150.754333,384.679626 
	C150.484146,381.284668 150.357758,377.436615 150.430481,373.228973 
z"/>
<path fill="#6C4B14" opacity="1.000000" stroke="none" 
	d="
M150.418182,285.228088 
	C150.714676,288.653564 150.812714,292.439178 150.766708,296.677673 
	C150.488342,293.283142 150.354019,289.435699 150.418182,285.228088 
z"/>
<path fill="#6C4B14" opacity="1.000000" stroke="none" 
	d="
M150.428925,444.217102 
	C150.717697,446.988892 150.808777,450.110626 150.755463,453.680359 
	C150.484451,450.941254 150.357849,447.754150 150.428925,444.217102 
z"/>
<path fill="#6C4B14" opacity="1.000000" stroke="none" 
	d="
M150.687149,263.292358 
	C150.884857,266.043579 150.891434,269.143005 150.752167,272.687561 
	C150.569534,269.968689 150.532776,266.804596 150.687149,263.292358 
z"/>
<path fill="#6C4B14" opacity="1.000000" stroke="none" 
	d="
M150.428116,414.154694 
	C150.720383,415.340607 150.815369,416.811279 150.767761,418.705444 
	C150.493744,417.565765 150.362289,416.002625 150.428116,414.154694 
z"/>
<path fill="#6C4B14" opacity="1.000000" stroke="none" 
	d="
M150.420059,281.055115 
	C150.696365,281.376404 150.790741,281.884186 150.751190,282.762482 
	C150.490891,282.502563 150.364502,281.872070 150.420059,281.055115 
z"/>
<path fill="#6C4B14" opacity="1.000000" stroke="none" 
	d="
M150.432281,422.052307 
	C150.706360,422.377441 150.794067,422.885956 150.746033,423.763428 
	C150.488831,423.500122 150.367371,422.867920 150.432281,422.052307 
z"/>
<path fill="#6C4B14" opacity="1.000000" stroke="none" 
	d="
M150.441040,456.985626 
	C150.680618,457.077301 150.753891,457.289520 150.719666,457.821228 
	C150.499680,457.795868 150.387222,457.451050 150.441040,456.985626 
z"/>
<path fill="#EE9D13" opacity="1.000000" stroke="none" 
	d="
M377.782501,402.470276 
	C387.695831,367.731079 408.195160,340.883362 438.914978,321.286926 
	C440.234528,320.734833 440.983765,320.125305 441.733032,319.515808 
	C441.733032,319.515808 441.835907,319.693726 442.012207,319.670471 
	C442.457794,319.405518 442.727112,319.163818 442.996429,318.922150 
	C442.996429,318.922150 442.988983,318.987366 443.301025,318.941803 
	C444.728973,318.207886 445.844910,317.519562 446.960815,316.831207 
	C446.960815,316.831207 446.982758,316.937653 447.151550,316.826904 
	C447.545837,316.466827 447.771332,316.217529 447.996796,315.968201 
	C447.996796,315.968201 447.998413,316.007324 448.348846,315.980957 
	C450.061005,315.146149 451.422760,314.337708 452.784485,313.529297 
	C452.784485,313.529297 452.772583,313.620453 453.055420,313.670013 
	C453.863525,313.393463 454.388794,313.067322 454.914093,312.741211 
	C454.914093,312.741211 454.899567,312.820526 455.190369,312.809937 
	C455.934937,312.371399 456.388672,311.943420 456.842407,311.515411 
	C456.842407,311.515411 456.860107,311.689209 457.175415,311.765686 
	C462.611816,309.684784 467.732941,307.527435 472.854065,305.370087 
	C477.993652,304.222748 483.133270,303.075378 489.091125,301.857758 
	C492.057831,301.822174 494.236877,302.108398 496.349823,301.851379 
	C512.072510,299.938843 527.644409,300.802765 543.128906,304.012848 
	C545.936890,304.594971 548.822876,304.800629 551.672852,305.180084 
	C572.272583,311.800476 591.345825,321.215942 607.275696,336.159760 
	C626.489441,354.184235 641.001709,375.258240 648.112000,400.914825 
	C649.823242,407.089508 650.954102,413.425049 652.234924,420.556366 
	C652.442017,431.891327 652.766052,442.356506 653.090088,452.821716 
	C653.273682,465.995636 649.641541,478.355042 645.191040,490.573456 
	C640.318848,503.949432 633.734436,516.444214 624.633179,527.323608 
	C610.182861,544.596985 593.705139,559.666260 572.599426,568.491089 
	C563.205322,572.419006 553.343811,575.290955 543.561707,578.195068 
	C540.152100,579.207336 536.343506,578.875671 532.229370,579.280090 
	C531.741516,579.402344 531.569092,579.416809 531.569092,579.416809 
	C531.034119,579.827209 530.499146,580.237549 529.073120,580.488647 
	C517.831055,580.426331 507.479950,580.523254 497.128815,580.620117 
	C436.950043,572.095215 397.077179,538.977600 377.872162,481.395264 
	C375.040863,472.906189 374.527924,463.643829 372.919006,453.821472 
	C373.925995,439.842865 374.890320,426.776245 376.028046,413.724792 
	C376.357025,409.950989 377.183868,406.220581 377.782501,402.470276 
M473.397766,367.790161 
	C473.235870,367.840637 473.073944,367.891113 472.481720,368.541656 
	C472.330872,370.024017 472.179993,371.506348 471.388336,373.185120 
	C471.597900,374.458130 471.807465,375.731171 472.061218,377.834473 
	C472.051422,379.219757 472.041626,380.605072 471.389313,382.185852 
	C469.402710,383.836700 469.713318,385.096954 472.086273,386.947540 
	C472.061646,392.628937 472.037048,398.310364 471.573212,404.476044 
	C471.724182,405.657166 471.875153,406.838257 472.073486,408.902069 
	C472.057983,411.260101 472.042511,413.618103 471.554962,416.565338 
	C471.712006,418.716827 471.869049,420.868317 472.072571,423.952271 
	C472.055664,429.629181 472.038757,435.306061 471.546692,441.577911 
	C471.708923,447.062073 471.871155,452.546265 472.075745,458.677612 
	C472.061279,459.109528 472.046814,459.541443 471.588501,460.458069 
	C471.728790,461.640472 471.869080,462.822906 472.057953,464.910675 
	C472.047455,467.933472 472.036926,470.956299 471.544800,474.557159 
	C469.350555,479.457703 470.165131,484.257874 472.074036,489.939911 
	C472.057892,493.619507 472.041718,497.299072 471.543518,501.589844 
	C471.154236,503.534851 470.351501,505.508545 470.484070,507.417297 
	C470.637695,509.628693 471.613403,511.782990 472.708923,514.232727 
	C473.200439,514.459106 473.691956,514.685486 474.734650,515.164490 
	C482.706512,520.911072 490.686554,520.574463 497.747040,514.274597 
	C511.857971,501.683685 525.428955,488.482361 539.086487,475.390778 
	C547.819031,467.020111 556.296875,458.384003 564.908386,449.886688 
	C571.481140,443.401093 571.640747,439.348907 565.497742,432.377716 
	C564.620178,431.381805 563.661438,430.453827 562.703247,429.533051 
	C546.099060,413.577423 529.603027,397.506592 512.818787,381.742645 
	C506.923218,376.205444 500.795166,370.611328 493.886719,366.552002 
	C488.233826,363.230469 481.260864,361.681305 474.454376,366.712952 
	C474.264404,367.022583 474.074432,367.332245 473.397766,367.790161 
z"/>
<path fill="#0B152A" opacity="1.000000" stroke="none" 
	d="
M380.000000,626.026855 
	C528.225647,626.026855 675.951294,626.026855 823.676880,626.026855 
	C823.676880,626.440430 823.676819,626.854065 823.676819,627.267639 
	C616.605286,627.267639 409.533722,627.267639 202.462189,627.267639 
	C202.461807,626.854065 202.461411,626.440430 202.461029,626.026855 
	C261.474030,626.026855 320.487000,626.026855 380.000000,626.026855 
z"/>
<path fill="#0B152A" opacity="1.000000" stroke="none" 
	d="
M191.261398,615.637878 
	C190.687653,613.013184 190.063538,610.056152 190.062256,607.098816 
	C190.013550,495.072113 190.022095,383.045380 190.029602,270.558838 
	C190.660843,270.382416 191.778595,270.601410 191.825516,270.960327 
	C192.039917,272.600586 191.973145,274.280121 191.973190,275.945526 
	C191.975998,387.255402 191.977753,498.565247 191.955582,609.875122 
	C191.955215,611.685181 191.659424,613.495300 191.261398,615.637878 
z"/>
<path fill="#020103" opacity="1.000000" stroke="none" 
	d="
M820.439209,252.168198 
	C821.621582,252.508301 822.374878,252.837585 823.444580,253.210815 
	C823.761047,253.254776 823.827026,253.639465 823.913086,253.814453 
	C699.896973,253.659393 575.794739,253.331421 451.692505,252.983017 
	C449.376526,252.976517 447.061188,252.727402 444.398071,252.377716 
	C495.321930,252.121017 546.593262,252.057037 597.864624,252.040573 
	C660.957520,252.020340 724.050476,252.043793 787.143372,252.029419 
	C790.136780,252.028732 793.130249,251.844421 796.577820,251.613144 
	C804.691345,251.706223 812.350769,251.931808 820.439209,252.168198 
z"/>
<path fill="#020103" opacity="1.000000" stroke="none" 
	d="
M835.788208,269.149933 
	C836.186279,269.212006 836.292664,269.454742 836.173462,270.318848 
	C836.060486,381.993317 836.078064,493.086365 836.135986,604.179382 
	C836.137024,606.132568 836.623596,608.085510 836.883606,610.038574 
	C836.835693,611.265991 836.787720,612.493408 836.171021,613.560181 
	C835.414490,611.095093 835.063477,608.790771 835.062439,606.486267 
	C835.013611,494.340088 834.994812,382.193878 834.972717,270.047699 
	C835.129456,269.756195 835.334473,269.503845 835.788208,269.149933 
z"/>
<path fill="#0B152A" opacity="1.000000" stroke="none" 
	d="
M834.735840,270.379761 
	C834.994812,382.193878 835.013611,494.340088 835.062439,606.486267 
	C835.063477,608.790771 835.414490,611.095093 835.845459,613.742004 
	C836.064087,614.511108 836.039490,614.937805 835.763733,615.807983 
	C835.285461,616.456848 835.098511,616.694031 834.951782,616.962891 
	C834.642639,615.034729 834.063599,613.106750 834.062866,611.178467 
	C834.019836,499.331299 834.022644,387.484100 834.044434,275.636932 
	C834.044800,273.995178 834.340881,272.353516 834.735840,270.379761 
z"/>
<path fill="#020103" opacity="1.000000" stroke="none" 
	d="
M200.279602,254.905212 
	C199.869354,254.907440 199.994766,254.506058 200.042053,254.301208 
	C200.657867,253.939987 201.226379,253.783630 201.938232,253.364349 
	C213.730408,252.599960 225.379227,252.098480 237.486206,251.565033 
	C247.032043,251.703613 256.119110,251.937454 265.207581,252.026733 
	C274.148712,252.114594 283.091339,252.055817 292.496765,252.114349 
	C291.024536,252.445068 289.089386,252.959747 287.153015,252.964417 
	C265.066345,253.017532 242.977905,252.846527 220.893509,253.077072 
	C214.153351,253.147446 207.424103,254.264999 200.279602,254.905212 
z"/>
<path fill="#FAC848" opacity="1.000000" stroke="none" 
	d="
M551.332764,305.079956 
	C548.822876,304.800629 545.936890,304.594971 543.128906,304.012848 
	C527.644409,300.802765 512.072510,299.938843 496.349823,301.851379 
	C494.236877,302.108398 492.057831,301.822174 489.468170,301.763977 
	C509.942444,297.841797 530.589966,299.069611 551.332764,305.079956 
z"/>
<path fill="#020103" opacity="1.000000" stroke="none" 
	d="
M347.387299,252.381470 
	C377.369781,252.131241 407.701752,252.093414 438.497131,252.109283 
	C437.518951,252.441711 436.077759,252.961197 434.635681,252.963623 
	C406.651886,253.010590 378.667999,253.001205 350.684113,252.979126 
	C349.701569,252.978363 348.719238,252.727936 347.387299,252.381470 
z"/>
<path fill="#FAC848" opacity="1.000000" stroke="none" 
	d="
M377.538177,402.767700 
	C377.183868,406.220581 376.357025,409.950989 376.028046,413.724792 
	C374.890320,426.776245 373.925995,439.842865 372.891357,453.356079 
	C372.744354,445.469849 371.915009,437.070343 372.647675,428.809296 
	C373.414886,420.158600 375.682220,411.640930 377.538177,402.767700 
z"/>
<path fill="#6C4B14" opacity="1.000000" stroke="none" 
	d="
M408.778015,629.497009 
	C387.679535,629.763855 366.266541,629.743896 344.379578,629.753296 
	C344.487061,629.514709 345.068939,629.011536 345.649963,629.012573 
	C366.587860,629.049255 387.525665,629.132996 408.778015,629.497009 
z"/>
<path fill="#FAC848" opacity="1.000000" stroke="none" 
	d="
M497.544128,580.734863 
	C507.479950,580.523254 517.831055,580.426331 528.549927,580.498474 
	C518.598267,580.728210 508.278839,580.788879 497.544128,580.734863 
z"/>
<path fill="#FAC848" opacity="1.000000" stroke="none" 
	d="
M653.390747,452.550812 
	C652.766052,442.356506 652.442017,431.891327 652.088562,420.932587 
	C652.603271,431.052673 653.147339,441.666290 653.390747,452.550812 
z"/>
<path fill="#FCB229" opacity="1.000000" stroke="none" 
	d="
M472.511230,305.437927 
	C467.732941,307.527435 462.611816,309.684784 457.088104,311.762604 
	C461.846466,309.623962 467.007446,307.564850 472.511230,305.437927 
z"/>
<path fill="#6C4B14" opacity="1.000000" stroke="none" 
	d="
M577.726929,629.178955 
	C575.306396,629.398254 572.431091,629.494507 569.191162,629.445679 
	C571.641785,629.219055 574.456909,629.137512 577.726929,629.178955 
z"/>
<path fill="#020103" opacity="1.000000" stroke="none" 
	d="
M313.342896,252.370468 
	C315.060181,252.134598 317.080170,252.098618 319.530273,252.115631 
	C317.855438,252.302536 315.750519,252.436447 313.342896,252.370468 
z"/>
<path fill="#020103" opacity="1.000000" stroke="none" 
	d="
M304.325867,252.363770 
	C305.732025,252.132233 307.425781,252.098572 309.540100,252.118011 
	C308.178284,252.301285 306.395874,252.431458 304.325867,252.363770 
z"/>
<path fill="#FCB229" opacity="1.000000" stroke="none" 
	d="
M452.438293,313.583313 
	C451.422760,314.337708 450.061005,315.146149 448.333099,315.969238 
	C449.341980,315.201752 450.717041,314.419556 452.438293,313.583313 
z"/>
<path fill="#020103" opacity="1.000000" stroke="none" 
	d="
M323.307739,252.359863 
	C324.407623,252.129135 325.776062,252.092896 327.552246,252.109940 
	C326.498779,252.293594 325.037567,252.423950 323.307739,252.359863 
z"/>
<path fill="#FCB229" opacity="1.000000" stroke="none" 
	d="
M446.615845,316.816437 
	C445.844910,317.519562 444.728973,318.207886 443.271820,318.926819 
	C444.044006,318.238831 445.157440,317.520233 446.615845,316.816437 
z"/>
<path fill="#FAC848" opacity="1.000000" stroke="none" 
	d="
M531.608459,579.400879 
	C531.569092,579.416809 531.741516,579.402344 531.701294,579.396790 
	C531.661011,579.391235 531.647827,579.384888 531.608459,579.400879 
z"/>
<path fill="#FCB229" opacity="1.000000" stroke="none" 
	d="
M441.425446,319.603851 
	C440.983765,320.125305 440.234528,320.734833 439.252258,321.232361 
	C439.718750,320.644257 440.418304,320.168091 441.425446,319.603851 
z"/>
<path fill="#020103" opacity="1.000000" stroke="none" 
	d="
M299.247955,252.343933 
	C299.769684,252.128036 300.502441,252.092377 301.599060,252.110016 
	C301.128265,252.283585 300.293640,252.403885 299.247955,252.343933 
z"/>
<path fill="#020103" opacity="1.000000" stroke="none" 
	d="
M331.202454,252.322052 
	C331.466705,252.129639 331.895691,252.095093 332.644440,252.112091 
	C332.431854,252.269073 331.899536,252.374496 331.202454,252.322052 
z"/>
<path fill="#020103" opacity="1.000000" stroke="none" 
	d="
M835.073303,617.156372 
	C835.098511,616.694031 835.285461,616.456848 835.699951,616.122375 
	C835.942688,616.440186 835.998108,616.887024 835.950195,617.658325 
	C835.592529,617.809814 835.375183,617.598877 835.073303,617.156372 
z"/>
<path fill="#020103" opacity="1.000000" stroke="none" 
	d="
M339.202393,252.327667 
	C339.466003,252.136963 339.895203,252.102386 340.644348,252.119171 
	C340.432159,252.274948 339.900055,252.379379 339.202393,252.327667 
z"/>
<path fill="#FCB229" opacity="1.000000" stroke="none" 
	d="
M456.527832,311.587219 
	C456.388672,311.943420 455.934937,312.371399 455.152893,312.795166 
	C455.287476,312.413666 455.750366,312.036346 456.527832,311.587219 
z"/>
<path fill="#FCB229" opacity="1.000000" stroke="none" 
	d="
M454.598022,312.664703 
	C454.388794,313.067322 453.863525,313.393463 453.014984,313.648132 
	C453.221802,313.247192 453.751892,312.917694 454.598022,312.664703 
z"/>
<path fill="#020103" opacity="1.000000" stroke="none" 
	d="
M825.310974,254.886169 
	C825.518921,254.721664 825.936768,254.832565 826.676514,254.972687 
	C826.998474,255.001892 827.202332,255.447235 827.298584,255.672699 
	C826.770203,255.652634 826.145508,255.407104 825.310974,254.886169 
z"/>
<path fill="#020103" opacity="1.000000" stroke="none" 
	d="
M824.202087,254.176636 
	C824.373230,254.093933 824.733887,254.192612 825.215698,254.554962 
	C825.021729,254.665085 824.706665,254.511551 824.202087,254.176636 
z"/>
<path fill="#FCB229" opacity="1.000000" stroke="none" 
	d="
M447.708527,316.013947 
	C447.771332,316.217529 447.545837,316.466827 447.097992,316.836060 
	C447.057159,316.657196 447.238708,316.358459 447.708527,316.013947 
z"/>
<path fill="#FCB229" opacity="1.000000" stroke="none" 
	d="
M442.703247,318.953369 
	C442.727112,319.163818 442.457794,319.405518 441.918884,319.713501 
	C441.902863,319.514709 442.156464,319.249664 442.703247,318.953369 
z"/>
<path fill="#3C1D01" opacity="1.000000" stroke="none" 
	d="
M836.969482,609.573486 
	C836.623596,608.085510 836.137024,606.132568 836.135986,604.179382 
	C836.078064,493.086365 836.060486,381.993317 836.149658,270.519714 
	C836.510010,272.084015 836.977356,274.028778 836.978271,275.973755 
	C837.028503,387.018646 837.040100,498.063507 836.969482,609.573486 
z"/>
<path fill="#0F1010" opacity="1.000000" stroke="none" 
	d="
M474.921082,366.427429 
	C481.260864,361.681305 488.233826,363.230469 493.886719,366.552002 
	C500.795166,370.611328 506.923218,376.205444 512.818787,381.742645 
	C529.603027,397.506592 546.099060,413.577423 562.703247,429.533051 
	C563.661438,430.453827 564.620178,431.381805 565.497742,432.377716 
	C571.640747,439.348907 571.481140,443.401093 564.908386,449.886688 
	C556.296875,458.384003 547.819031,467.020111 539.086487,475.390778 
	C525.428955,488.482361 511.857971,501.683685 497.747040,514.274597 
	C490.686554,520.574463 482.706512,520.911072 474.419250,514.804199 
	C474.103882,514.443848 474.178375,513.973877 474.385864,513.620972 
	C474.723419,512.118103 474.967316,510.968079 474.967285,509.818085 
	C474.965515,462.021210 474.941925,414.224304 474.921082,366.427429 
z"/>
<path fill="#FAC848" opacity="1.000000" stroke="none" 
	d="
M474.178375,513.973877 
	C474.178375,513.973877 474.103882,514.443848 474.143677,514.677856 
	C473.691956,514.685486 473.200439,514.459106 472.420532,513.638916 
	C472.096649,509.022949 472.061096,505.000824 472.025574,500.978668 
	C472.041718,497.299072 472.057892,493.619507 472.066925,489.012939 
	C472.048676,483.383667 472.037537,478.681396 472.026428,473.979095 
	C472.036926,470.956299 472.047455,467.933472 472.053864,464.055420 
	C472.043976,462.124573 472.038177,461.048950 472.032349,459.973358 
	C472.046814,459.541443 472.061279,459.109528 472.070984,457.883118 
	C472.051453,451.720062 472.036652,446.351501 472.021851,440.982971 
	C472.038757,435.306061 472.055664,429.629181 472.065399,423.045715 
	C472.047821,420.084808 472.037445,418.030457 472.027039,415.976135 
	C472.042511,413.618103 472.057983,411.260101 472.064697,408.057678 
	C472.041412,406.139435 472.026947,405.065613 472.012451,403.991760 
	C472.037048,398.310364 472.061646,392.628937 472.076172,386.078400 
	C472.054688,384.136292 472.043243,383.063324 472.031830,381.990356 
	C472.041626,380.605072 472.051422,379.219757 472.058960,377.018127 
	C472.047516,375.130768 472.038330,374.059753 472.029114,372.988708 
	C472.179993,371.506348 472.330872,370.024017 472.683350,368.716309 
	C472.874359,415.337494 472.855530,461.783997 472.887970,508.230499 
	C472.889099,509.831543 473.403107,511.432281 473.791748,513.274414 
	C473.996460,513.668396 474.087402,513.821106 474.178375,513.973877 
z"/>
<path fill="#020103" opacity="1.000000" stroke="none" 
	d="
M474.385864,513.620972 
	C474.087402,513.821106 473.996460,513.668396 473.856262,512.807129 
	C473.832855,463.946381 473.858673,415.794159 473.884491,367.641907 
	C474.074432,367.332245 474.264404,367.022583 474.687744,366.570190 
	C474.941925,414.224304 474.965515,462.021210 474.967285,509.818085 
	C474.967316,510.968079 474.723419,512.118103 474.385864,513.620972 
z"/>
<path fill="#CB9D4C" opacity="1.000000" stroke="none" 
	d="
M473.641113,367.716034 
	C473.858673,415.794159 473.832855,463.946381 473.742554,512.565918 
	C473.403107,511.432281 472.889099,509.831543 472.887970,508.230499 
	C472.855530,461.783997 472.874359,415.337494 472.898499,368.416290 
	C473.073944,367.891113 473.235870,367.840637 473.641113,367.716034 
z"/>
<path fill="#F59D05" opacity="1.000000" stroke="none" 
	d="
M471.785614,474.268127 
	C472.037537,478.681396 472.048676,483.383667 472.043518,488.554565 
	C470.165131,484.257874 469.350555,479.457703 471.785614,474.268127 
z"/>
<path fill="#F59D05" opacity="1.000000" stroke="none" 
	d="
M471.784546,501.284241 
	C472.061096,505.000824 472.096649,509.022949 472.182190,513.503601 
	C471.613403,511.782990 470.637695,509.628693 470.484070,507.417297 
	C470.351501,505.508545 471.154236,503.534851 471.784546,501.284241 
z"/>
<path fill="#F59D05" opacity="1.000000" stroke="none" 
	d="
M471.784271,441.280457 
	C472.036652,446.351501 472.051453,451.720062 472.049805,457.559509 
	C471.871155,452.546265 471.708923,447.062073 471.784271,441.280457 
z"/>
<path fill="#F59D05" opacity="1.000000" stroke="none" 
	d="
M471.710571,382.088104 
	C472.043243,383.063324 472.054688,384.136292 472.053192,385.611816 
	C469.713318,385.096954 469.402710,383.836700 471.710571,382.088104 
z"/>
<path fill="#F59D05" opacity="1.000000" stroke="none" 
	d="
M471.708740,373.086914 
	C472.038330,374.059753 472.047516,375.130768 472.036865,376.602997 
	C471.807465,375.731171 471.597900,374.458130 471.708740,373.086914 
z"/>
<path fill="#F59D05" opacity="1.000000" stroke="none" 
	d="
M471.791016,416.270752 
	C472.037445,418.030457 472.047821,420.084808 472.042145,422.579468 
	C471.869049,420.868317 471.712006,418.716827 471.791016,416.270752 
z"/>
<path fill="#F59D05" opacity="1.000000" stroke="none" 
	d="
M471.810425,460.215698 
	C472.038177,461.048950 472.043976,462.124573 472.029572,463.602722 
	C471.869080,462.822906 471.728790,461.640472 471.810425,460.215698 
z"/>
<path fill="#F59D05" opacity="1.000000" stroke="none" 
	d="
M471.792847,404.233887 
	C472.026947,405.065613 472.041412,406.139435 472.041016,407.616333 
	C471.875153,406.838257 471.724182,405.657166 471.792847,404.233887 
z"/>
</svg>